/* XPM */
static char *a2ae7d043aa94458803d163cc9dae805[] = {
/* columns rows colors chars-per-pixel */
"64 64 16 1 ",
"  c black",
". c #220000",
"X c gray1",
"o c gray6",
"O c #1B1B1B",
"+ c #32323E",
"@ c #282828",
"# c #21212B",
"$ c #343434",
"% c #331001",
"& c #4A2310",
"* c #0D0D19",
"= c #010103",
"- c gray25",
"; c #051D0D",
": c white",
/* pixels */
"           .          X     X                     X o   o       ",
"  X.XoXoO+@OO@O##OOooooOoo  XX XXooOOOoX   XoO$OoOO%&..%%%.oooX ",
"  XXXXoO##oooooooooOOOOOOOX *oX ooOooOoo   Xo##@$Ooo%OO%o@OOOOo ",
"  XXXX*OOO@OOOOOOO@OOOOOO#= XoOooOOooOO    X#OOOooXOO@@%...oOOo ",
"  XXXOOO*OOO@@@OOOOOO@#OX#   OOOo@+@@@##X  OOOoo#@@-OOoOo.oo%oo ",
"   Xo#oXoXoO@@@@@@@@@O###+   XX=X*X=XX=X   XXX   XX    =XXX. X  ",
"  .XOoooooO#@@@@OOOO@ OOO#                                      ",
"  XXOOoOO###O@@$@OOO@OOO+OXXX==XXX**XXX=   XXX===XXX=XXXX XX    ",
"  XXO$OOO##ooO@@#OOOOo$OOOO#@$-O#@+#####=  oooOOOOooO#OO#ooOOoo ",
"   XOoOOOO#oOo@@####O@@$$$@@@@##@@@@@##O=  OOOoOoXOooOOo X Xooo ",
"   XoOO#OOOooo@@OO@#@@@@@@@@@@@@@@$$@@@@X  O##OoXoooOOoooooXXXo ",
"   XooOoOO@OOOOOOoO#OO@@@###@@@@@@@$@@@+X  O##+OXoooooXXX#oXOXo ",
"  XoOoooOO@OOOOoooOOoO@@######OOO##@@@##= =$@##OO#OoooooOOoooXo ",
"  oo@OoooO@OOoOooooOoOOOO*OOOOOOOoOO####= X@O@OOooOOoXXXo#ooXXo ",
"  oOO#oOO##OOooooXOoooOooooOooOOoOO@+OOo  =OOOOOOoooooXXXoooXoo ",
"  O#X$O@OO#@OOooooooXOoooooooooO@@O#OOOO  =#OoO#oooooooooOOOOoo ",
"  XoooXoooOOOOOOoXooX#Oooooo*O#@@###OOOO  X@oooOOOOoooooOOoooOo ",
"  ooXoXoo@OOO#O@oXXXXOOooooo##O#@@###OoO   OooO##OOooXXooooOooo ",
"  oooooOOOOO##OooXXXOOooooOOO@+#OOO##OOX   #OOO##OooX  oooooooo ",
"  oXOO#OO@$O##OooXXo#OoXXooOOOO#o$OO@@@O  =##OO@@@@OoXoooooooXo ",
"  ooOOX@OO@##OOooooO#OoooOOOOOOOoO@@@$$@   ####@@@@@OooXXooooXo ",
"  XXOOoooO#@#OooooOOOOooOOOooXoo@O@@@@@@X X@+@######@ooXXXooXXo ",
"  XXOoXXoO@@@OXXXoOOOOoooooooOOOOO@@+@@@X =@OOoO##+OooXXXXXXXXX ",
"  XXooooO#@@@oXXXooOOOOOOOOoXXX o#@O++++X X$OOOO#OO XXXXXXXXXXo ",
"  oooOOO##@@@OoXooOO#####OooXXXo##@@@@@@X XO@@@@@OoX oXXoOOoXXo ",
"  oOOOOo$##@@@oXXOOOOO##OoXXXX*XX*oOOOoOX =#XooXXXXXXX =**X   X ",
"  OOoOOOO##@@@OooOOOoOOOOO                                      ",
"  OooOOo@OOOOOooOOOoooooXo   XXXX**X**o   XXXXooXXXXX XXXXX     ",
"  OOooo%..OOOoXXooO###OOOOX  OOOOOOO#OO@X XO#O@OOoOOoXXoooO@ooo ",
" oOOOO&OOOoO#oXXXoOOOO@@OOX =OOOO@@@@@@-X  ooOOoX;OOOOooO#Ooooo ",
"  ooO#OoXoOOOO XXoooO#@@OOX  oOO@@@@@@@@X XOoO XXOo$oOooooXXXXX ",
"  o X XX XX oXooXXXXXXXXXXX  XX*ooo oX*X   @@#OXXoOOXooooX   =  ",
"                                          X@#ooXoooXXX*ooo  Xoo ",
"    XoXXX    XXXXXXXXXXXX    oooXXoXXoXoooX@O@@@O@O@o*oXX*o  Xo ",
"  oooooXXXXoO##@+##OO@@@@@X X#@+@oOO@@@@$@O@@@@OOOOOoX****o  XX ",
"  oooOoo#OOXO##OOO@@@@@@@@X X@@@@+@@@@@@@Ooo$@@OOOooooXXX*XXXXo ",
"  oOOOOO#OooOOOO#@@@@@@@##= =+#@@#@@@@@@XoOO@##@####o XXXX XXXo ",
"  OoooOO*ooXoO**#@@@+O@@$O  X@OOO#+@###O#OOO#######OoXXXXXXoo=. ",
"  ooooOO*ooo#oX*OO@@$O@@@@X X$@O######OO@#O@ooO##XOOoX  XXooO%X ",
"  ooXo*O*oooooooOO@@@@$$@o  X@@@#OoOOOOO@#ooooO##OOOoX   XooOoo ",
"  ooXX*#OooooooOOO@@@O$@@o   O@@@ooo@Oo@XXX#X#O##OoooX   XooOOo ",
"  XXXXooooXXoooOOO@OOO@@OO   OOOOoo@OO@@oXXXoo#OOOoooXX  XoOoOo ",
"  XXXXooo#XXoooO##OOX@@@@O   OO@@@o#OOO#ooOooooXooooXXXX XoOooX ",
"  XXXXooOOOooooO#@@@#@@@@O   @O###o@#ooo@OOOooooooooXXoXXXoOooX ",
"   XXXoOOOOooooOO#O###@@OO   @OOOOOoXXXoOOOOOooOooo**oOoooOOoXX ",
"  XXXX*OOOooXXoOO#O##Ooooo   oo@ooO@OOOoOOOOoo#OoXo*XXOOOO##  X ",
"  XXXo*OoooXXXXoOOOO+OO@OX   XXoO$$@OOOOOOoOo oooXoXXoOOO###XXX ",
"  =XXoOOoooX  ooooooOO#Ooo   oOO@$@@$OOOOOO@oXoXXoOoXOOOO###oXX ",
"   XXoOOOOo  Xo ooooooOooo   OOOO@@@@#OOO@@OoooooooooOoXoXOOooX ",
"  =XooO@@@OoXooOOOooooooXo   XoOOO@@#OOO@@@OOOOOOOOOOOOXXO#Xooo ",
"  XoooO@@@oooooooooXXXXXooX  OOOOO@@#OOO@OOOOOO#O#OOO#o o##@OOo ",
"  ooooO@@@@OooXXooOOOoooOO   OO@@@@@#OOO@OOOOOOooOOOO#OOO@oooXo ",
"  ooooO@@@@OOoXOOOO+#OooOO   oOOOOOOOOOO@#OO#OOX OOOO##OOXooooX ",
"  ooXoO####@ooXOO###OOO#@+   XOOOOOOOOOO####O#ooXOOOOO#Oo.oOooo ",
"  Xooo****OOoXoO###OOOOO@O   oOOOO##OOOO######OooO#OOOooOOOOXXX ",
"  .Oooo*oooooXo@O#OOOOoXX#   OOOO**#OOOO@#OOO#OooOOOOXooOOOOooX ",
"  %XXXXXXXXXXXoO@OOoOOOo @   oooooXooooO#OOO OOooO#oXoOO@OOXXXX ",
"  .XXXXXXXXXXXooOOOOOOOOO@=  ooO#XoooooOOOOOOOOooOXXXoOO@OoOoXX ",
"  XXXX. XXXoooooOOOO@ooX##   OoooOoooooOOOOOOOOOOooXXXo#OOO@XoX ",
"  X  XXX.XXoooXXo#@@OOooOo   oO@OooOOOO#OOooOOOOXooXoXooOOXOXoo ",
"  X..XXXXXXoooXoOooOOOOOoX   OoooOOOOOoOOOoOooOOOOOoXoOoXOO%.XX ",
"    .O XoXXXXooOOXOOOOOooX   oooXXX#oXX#OXOOOOoooooooXXXX%%XXXo ",
"  .                              X**X *X*  X              X     ",
"                                                                "
};