/* XPM */
static char *c18872b5dc394f0cc1c48f676f25e52f[] = {
/* columns rows colors chars-per-pixel */
"64 64 73 1 ",
"  c #010101",
". c #080707",
"X c #090807",
"o c #0C0A0A",
"O c #1C0504",
"+ c #110E0D",
"@ c #1D0C0B",
"# c #12100F",
"$ c #151311",
"% c #191614",
"& c #1C1916",
"* c #1E1A19",
"= c #2D0101",
"- c #2D0B0A",
"; c #350908",
": c #3B0B09",
"> c #22120F",
", c #291311",
"< c #211E1B",
"1 c #25211D",
"2 c #28231F",
"3 c #37231E",
"4 c #2B2622",
"5 c #2E2924",
"6 c #322B27",
"7 c #342D29",
"8 c #37312A",
"9 c #3B342E",
"0 c #3D382E",
"q c #3E3630",
"w c #3E3832",
"e c #440807",
"r c #4C0C0A",
"t c #43120F",
"y c #5E1511",
"u c #650504",
"i c #660D0C",
"p c #6D0A08",
"a c #740706",
"s c #7B0101",
"d c #7F0A08",
"f c #751210",
"g c #771913",
"h c #403732",
"j c #433B35",
"k c #4C433B",
"l c #51483F",
"z c #5A4F45",
"x c #595046",
"c c #9E0905",
"v c #92170E",
"b c #8A1D13",
"n c #A80202",
"m c #AB0B08",
"M c #A4140D",
"N c #852116",
"B c #9E3522",
"V c #A33621",
"C c #DC0A06",
"Z c #CB311F",
"A c #D33A25",
"S c #F93823",
"D c #8A402C",
"F c #864830",
"G c #8C4831",
"H c #D94F32",
"J c #F54D30",
"K c #C08151",
"L c #E8814F",
"P c #FC8C57",
"I c #FCA968",
"U c #F9D282",
"Y c #F8DB88",
/* pixels */
"                                                                ",
"                                                                ",
"                                                                ",
"                                                                ",
"                                                                ",
"                                                      .         ",
"      ..o+...                .    .                ...oo.       ",
"      &794<Xo$*2*%*<464$.  .&%.   %%.  .%464<*$&2*$o.<598*      ",
"     .7+. ..%jk5%%4989q4#XX*9  X.  9*XX+5q9995%&6kj%.  X+6X     ",
"     +9.X.Xo<q+ +*w72&&#XX$k%  <.  %k%Xo$%&<79*o o9<o..X.q+     ",
"     o5 .%o 14  X5*.   .. ok<.o0#  <ko  X   .*6o. 22 +%X 5o     ",
"     X< .o+ $<$ .1   Xo$$X.29%10<+$q2Xo#+oX   4  #<% ooX <X     ",
"     ...X.  . X.$..X$&*1<&$X1915%2w1X#&<<<*%X.X$.X X.  X.o.     ",
"     .o&<1$.  .X*.o*4wj9w6*+X147<5<.#*60qjw4*o.*X.  X$2<%o      ",
"      $j911  3AeXX$45o ..$4%Xo#05%oo%1#o .o44#XX@Ny  <<qj$      ",
"      *ko.+X.FIcoo*+Xo&%X.X1%X 77X.$2X.X%*o.+*ooKSa.X+.ok<      ",
"      25 . .o:cdoXo$9zxl9$ $6X X< .7#.#wzxz9$oXoGN-o.  .54      ",
"      &$oo $*.@oo *jw7<$%+  1<. o.*<  #%$<6wj* ooo.*$ Xo$&      ",
"      %%*71. Xo. o04**%X ...o4<  o4o .  .%**4qo XoX..16*%%      ",
"      *59* .+$&o<w8<<<o. X$#XX%+X+..#*o  +<<<7w*X%$o. <q5*      ",
"      <q6. X*4##j4<<5*X Xjk71..&$X <7kw. .*4<<4j$+5*X  6q<      ",
"      491  %44.9w*<4*%. 7j%#j# 1*.%j#%j7 .%<5<*w9.54%  494      ",
"      69& .&w#ox6%<*%$++8&oo2< %*X<4+o*9#+%$**%7zX+w%X %96      ",
"      4q& o*j.&x<%+o.++$6$o &#.%*X$% .$5$+#.o+%<x%.j<o *94      ",
"      $4$.$<0.%l%o   +%$7## .  X% . .o$7#$#   X%l%.9*$.$4%      ",
"      .+X +<wo.9%  o79484<%o   ..   X%148598X  $9X.w*$ X+.      ",
"       XX X*5$.+# owj*$$1&<&#+   .o$&**1$$*jjX.$# $7*o X.       ",
"       X%o.$*1.. .#z%oXo%1$%+11oo$$#%$<%+oo%k$. .o1*$.X$o       ",
"      .*jk2X+%1+ .$7$o .o2#%o Xoo  o$#2o  oo8#  #2$#X2kk*.      ",
"      &9*<9<XX&51o.<w4%. &$o#  @o .oo$* .%2k1oo15%X.<9<%8&      ",
"         o224$. .*%X. .   <X ouss-  X1   .   %<. .$411+  .      ",
"       . $<%<55<o X$***$  #X >VYMp  X#  #1*1#X .165<%<$ .       ",
"          +45&X..oo...o   #  ,VPCa   $   oXXXoX XX*51#   .      ",
"     .%.  $w*XXX&2X.$<$. #$   pvnt   $+  $<$ o4*XXX<w$   %.     ",
"      %8%*9*Xo$51o.1j2&  $#o#  ++  ++## .%4j4Xo<5$oX<q<%8*      ",
"      .<kk4o#%4o  +7$o  o&#%+ Xoo  +%+&o  o$7+. +4%+X*zj*X      ",
"       o$o.$*4X..X%k%oo+%<$$#1<o+%$#%#<%+oo%z%. XX4*$.o%X       ",
"       .X X*6$ $# .jj&$$2&<&$+    +$&<&1$$*wq. $$ $5*X XX       ",
"      XoX.$*wXX8%  X79684<%o   X    o%<275q7.  %qXXw*#.X+.      ",
"      %4$ $18.%z%o   #$#7$# .  X#  . ##8$$+   o%z# q<$ $4%      ",
"      2q* o<j.%x<%+..++$5$X.%$.%1o#& o%4$++..+%<x&.j*o &q4      ",
"      69* X%woox6*<*%%++9*oo4* $*X<2oo*9++$%*<%7xoow&. &96      ",
"      48<  $45Xqq*<5*%. 8w%#j$ 2* $j#%j7 .%<5<*q9.54%  184      ",
"      <q6X .*5o$h4<<4*. Xjk6<..%$..27kjX X*5<*4j$o5*X  7q<      ",
"      *5q*  +$%o<w7<1<o  o&+Xo%#XoXX#%X  o<1<7j<o*$o  105*      ",
"      $%<74. .o. ow4<*%o  X.o2*  o2o .. o%%*4wo .XX..17*%$      ",
"      *$+o $*.++. <jw5<%$#  11. o.&1  #%%*6qh< ooo.*$ oo%&      ",
"      46   .orZf.Xo$7xxx9#.#6X .1 o6#.#9zxx9$o oDL-X. . 52      ",
"      *k+ #X.HUgoo*o.o$%X o1%. 86XX%1X..$&X.#&o#NJmXX#.ok<      ",
"     .$h94<  Bi+..$45+..o$1&XX$05&XX%2$o..+55#XX;pi  <28j$      ",
"      o&<1$X =Oo&.o*4wwqw5*#.146*6<X+*5w9jw4&+ *X.  X$2<%oX     ",
"     .o.X . X X.$..X%&<<<*$X1915%4w<X$*<1*&%X X%.X o  .oX..     ",
"     .1 X+o $1o  4   .o$$XX48%1q<o$q< o+$oX   1  #<$ ooX.<.     ",
"     o4 .%o 22. o6*.    . ok*.+w$  <zo .     <7o .14.o%X 5o     ",
"     oq.X.Xo<9o o<964%&$XX%k%  *   %j%Xo$&*169<o oq<X. X.9o     ",
"     .7+.  .&jk7%%5q99q4+XX*8. X. .8<oXo4qq8q5%%5kj%.. .+6.     ",
"      *795*X+$*4&$<<462$.  .&%   .%&.  .$464<*$&4*$+o<598*      ",
"      ..+o...               ..    .                 .Xoo..      ",
"                                                                ",
"                                                                ",
"                                                                ",
"                                                                ",
"                                                                ",
"                                                                "
};