/* XPM */
static char *bb6943d437e14aa781d26ffc151ec5aa[] = {
/* columns rows colors chars-per-pixel */
"64 64 90 1 ",
"  c #050403",
". c #090706",
"X c #0A0807",
"o c #0D0A0A",
"O c #140505",
"+ c #1C0706",
"@ c #120E0D",
"# c #1C0D0C",
"$ c #14100F",
"% c #1B100F",
"& c #161111",
"* c #1B1514",
"= c #1F1817",
"- c #1F1918",
"; c #260404",
": c #280404",
"> c #240E0D",
", c #2C0E0D",
"< c #330303",
"1 c #390202",
"2 c #350D0D",
"3 c #3D0C0B",
"4 c #23100F",
"5 c #39100F",
"6 c #201717",
"7 c #201917",
"8 c #241C1A",
"9 c #291F1D",
"0 c #2A201E",
"q c #2D2321",
"w c #322624",
"e c #352926",
"r c #372A28",
"t c #3B2D2A",
"y c #3E302D",
"u c #460505",
"i c #4D0404",
"p c #4E0807",
"a c #440A0A",
"s c #4B0909",
"d c #540404",
"f c #5C0303",
"g c #500807",
"h c #540D0C",
"j c #5C0A09",
"k c #521713",
"l c #581211",
"z c #521813",
"x c #501A18",
"c c #630403",
"v c #6C0303",
"b c #600807",
"n c #6E0807",
"m c #6B0A09",
"M c #740404",
"N c #7C0504",
"B c #7C0B0A",
"V c #41322F",
"C c #453532",
"Z c #483634",
"A c #4B3936",
"S c #4D3B38",
"D c #830505",
"F c #8C0505",
"G c #830A09",
"H c #8E0908",
"J c #910504",
"K c #990504",
"L c #940807",
"P c #960D0A",
"I c #9A0E0B",
"U c #8C110D",
"Y c #931813",
"T c #981F17",
"R c #A61E17",
"E c #92231A",
"W c #9B281D",
"Q c #AD2A1F",
"! c #B62219",
"~ c #A12F23",
"^ c #AB2E22",
"/ c #A63326",
"( c #AB3527",
") c #AB3F2D",
"_ c #C0140F",
"` c #C03F2E",
"' c #AC412F",
"] c #B64533",
"[ c #BA4633",
"{ c #BD5D43",
/* pixels */
" X.... ....           .Xoo@o@ .  ..ooo@oooo ....... XX.X X.  . X",
" @&@@@ooooooo@o@@$@$@@@@@&@o.@90qo .88.@&@@@o@oo&&&@@&&$&&X  Xo@",
" oooo&o@@o$$&@@o.ooo.X@ooo@o. @=8@.qe*o@X..XX ..    .Xo@@@$.o9&X",
" @&$0o.@@@@$@o...    .         o*oqq@.o.@*78qqqqq97@X  .ooX o90@",
"X@&*7X@@oo..  ..o@@.ooo@.X@@o@=8@*t@.o@qq09900q0qqettttw8* .080$",
"X@&*t&  @@-9qwq8=8*-==778*&$o&8& ww@@**&@@@ooo@@ooo@&8wtttttt*7@",
"X@&&ttt**8q99qqqq09997@**&$*-**  rw$@@@$@--*&*8*7--**ooo7w07*7*@",
"o$@X@0q0qqq98*-8=*=*@o@o&-=@. o oere08**&=--7997*&&&*7*@@@*=*=@@",
".o... @79=*@o&8&&=&oXX*7=@@oX$o  =w8w0977*&&&*9979o@&@@*@@o@=@*X",
" ....==$oXo&80-&*oX.o=8*oo.o@XX.  .o$ww7800807*79-8&o&&*=o. @*@@",
"... &@ooo-00q=&@XX.&9q*o.o@ooo X.   .@=wq*&70q0q88=90o@*=7@. @@@",
"o. .ooo&qqqq&@.. o=w0@XX@@X.o..@   .. .@8w9*@@=9qq977qoo*==@..X.",
". @@@&-wq-q&X.Xo@=w8@..@@.oo ..... X  .  &ee*&@o&9ww9=8oo&77X.o.",
"o.@o@7w08-oXXoX@8w7o.o*@.ooX.o...X  . o.  o7rq**@o&qrq99o@*6* Xo",
".o.$-q9-&&o.oo&qq=o.o&oXo o@oo         o.  o=q07*&o&7w09=.@*8@o.",
" o*=q-97&Xooooqq9o.o$Xo. .o..           X.  o=989*&o@-w97&.@*&@@",
".**88w-$o.oo*qq8o.o@.o.. X              Xo   @*-=77*o@-r-=oX@8o&",
"@o8997@@Xoo*98-o.o&.o.      o7=Xo&@&    .o.   @8*-77*oo7w*@.o*o@",
" $087@@..o*99*@oo@.o.      orr9X@**8X    X.X  .@8=97-&o&q9*.o@oX",
" 898o@@..*98*&o.@.o@      X=e09X&&=&&    X...  .*9=89*@o8q-.o@@o",
"o99o@o@.&9--&o.@X.o      .&qqqq&$&=-8X   .o.@...o9*&*9&o-88ooo@o",
"&8*oo$.o8-*-@..@ @.      @8qqqq-7-qq9o   X..o X..9&@*9&@@--$oo&&",
"o7&X&o 7-*8@..@.oo      .*qqyqqeCytCqo   ..XoXX X9*@*q*&@7&@oo&@",
"&8o  .@7*q*o.@o X       .8-qyy9qeyCCq&    X.o....9&@8q8&@8*$.@*@",
"&8o ..&808@.o@..         98qCy.o .9Cw9.    XoX  .9&@89-@@8*&.@*&",
"*8o&X.o7w@o @@oo.       .9qqCy.Xo 7Creo   . Xo. .q&@89-&o7*&.@*&",
"*8&@o.$9-@..*o..        @9q9Aro*o 7Arq7   o. X .-9&@88-o@88@.&&o",
"&q@X..78@&.&&o.  .X     @7q0Ae&7= =Ar9e.  o...&ry-&*98&@@8-Xo*o.",
"@9@ X@q-&oo*&o   XX X   &9q8Aeo8* *Aw9w-  ..@qyt-@*9q*@Xo8&.*&..",
"@9@ X*9&&.@&@. o.XX .   *-q9Aeo7w.@Sw90*  .o8yt*oo-q-@Xo&9.&*.  ",
"&8@.o-=*$@@&oo...   .   &*90CrXqeo&Sw7-*. @&ew@.o*-*@XX&8&*qX   ",
"o-o o8=*@&@@ ...@*=*&&.&&=89yt.*7.&Sq8-9ooo&&$o@*8*oXo&8-o8*    ",
" *o o-7&o*@@.o&=*=97-*7&.&-8rtX o &Aq8-eo@.o$.o-*oooo&=7o*8X X  ",
" @o..-=@o$$o@=8wtytw9*X7*o*7tyX  .@Aq=r7&&@  &8=Xo&o&-0$$=9    X",
".@o.o8=o&*o$-08*@oo@& o@7&=*tr @o@@C8=C@*-&XX&*o@&&X08-X89*    X",
" @@.@87.&7o@$..... Xo X @7q&tt X*@Xe-0e&799@.Xoo&*X=q7ooq=o X .o",
" @@.@0-o&-@@@@@@&8&@ o*@=.t&qt X&o e0e=&*9w=o X@@o@-q&X*w$. XX.o",
".@&X@q*@o&0q-7=8q9*X **7- -rwr o=& yq0$@&*qq&o oo-*9-Xo097o XXXo",
"Xo@Xoq*&oo7qq79908@ o7*0*o@tye o8& eq9$ X&&qqo X&=99&o@8q0 .X.Xo",
"oo@@ 77&X@orwqqeq&o &797$@ eet o=# q0&&X  $*w=X.o880o&Xowrq=oooo",
"X@o@ &0o.&.*qwq0qo. 79q&@ .*@Co@7* 7*@$X   @=w@X.999&* @-98weww@",
"o@@@.o0o.*.X-twq0o Xqe*&   oX0O@7=.7@@*%X   &q8XX7899* @@o@=oo@o",
"o@&@.o87.7oXo7et9o.@e8&@  X@.*XX=% *@&*8     97@.-99q7.@...X.o@o",
"o@@@o &0@-&o@=9q&. &8&&o  6@X@X@7o oX%%7     Xo$ =qq8w*o...Xo&7@",
"@&&@o o89&o.o*&q8o &*@@X  o*@oo%97$oX$*%     X70 @e070q9@. .o&e&",
"@&&&o. o**@o.XX&9o.@X .X   *@o$*96$@@$6X    .*w*o@0e*=7qe8&@oow=",
"@&&@oo .@9&@o o&*o.oo      @$o$87**&@@%     *w7*@o$t7=*@=99qrrw@",
"@&@ooo..&0@@o.X&&o.o*8o.   .o*&**$@%$Xo    &w9**@o@w9**@@...@$& ",
"@&o@oooo-q@$o.o&&.. @*q-@   .*#+:<;++X   X*w8&o@@.o8w8&o    .   ",
"o@@@o.@-8@o&oo.-*o.  &-00&X  @:cvvnbp;..X$q7*&@.o.@8e8@X  .ooo. ",
".@@o-9-&@@oo@o.-&.oo..o=798#:iF![`_Gl5;o@&*@    ..@&98@  ...oo@.",
"o@@o&$o$@@oo&X.-. .o.   o$792fhGFFvfjxa#o.   X. ..@@9=*  o.o@@@X",
".&&@@oo$@@o@o  q. X.oo    .+5Lajvcdfdua#o         .$89o@ o.@oo&o",
".&&&@oo@&&@X. ow..o@o@o. .X aPidDNdfucu+. X.    .   99*oooo.X&@X",
".&@oooo$oooo  @9.ooo@oo.X.@@sEddY^DNsBp>&Xo   ...o  .9w@@o@ @w&o",
".&o$&@ooo@oo @0o.ooo@o..@. $jP3d~[JNzGg6&oX  ... o.  X99$X@o8w@o",
"o@@&&$&@&&o@*87oo..ooo  XXX@jm,p/]LJzBa%&o.  .o..ooo. oqw0qq0-$o",
"o$&$oo798-77*8o@o.o.o...XXo#as,p/{(Jsn3*@X. .ooooooo@o  $887*@$@",
".@&@o@o*0087*o@oXooo@...  o@aa,s)]IFpp2&&X  .oooo$@oo.oo. ..@$$@",
"o@&@@ooo  o..oooo&ooo.... o*u2,s'QKDpa2&&. ..ooo.@&oo@o@@o@@$*$@",
"o@&&&$ooo .o@.o@&$oXo.X .  *3%>s)Rccg,&&@o  oooo@o@@$@@&&$$&&$*@",
"o@&&&&&&$o@@@@&@@&&$@Xo .. #4&4sWUfcs%*&@   ooo@*&&&*&&&&&&&*$$@",
"oo@$@$@&&$$$&&&&&&&*&oX   .O@@>uEvfc3$@@.  .oo@&&&&&&$&&&&&&$&$@",
"  .o..o.                      O1Mfdf1             .oooo.... ..  "
};