/* XPM */
static char *_6462b210a984f89e13aa232eda5e652HsKrmewDrmpnkbtE[] = {
/* columns rows colors chars-per-pixel */
"64 64 167 2 ",
"   c #57341E",
".  c #5C371F",
"X  c #613A1F",
"o  c #5A3720",
"O  c #5D3A21",
"+  c #633D22",
"@  c #693E22",
"#  c #654125",
"$  c #6C4325",
"%  c #6C4529",
"&  c #6F492A",
"*  c #724526",
"=  c #7A4726",
"-  c #734827",
";  c #7C4B26",
":  c #704629",
">  c #744B2C",
",  c #7A4D2C",
"<  c #77502D",
"1  c #7C512E",
"2  c #744F30",
"3  c #7A4F30",
"4  c #7C5331",
"5  c #814D29",
"6  c #83532E",
"7  c #8B572E",
"8  c #835531",
"9  c #895632",
"0  c #855A35",
"q  c #8C5B34",
"w  c #835D3B",
"e  c #8C5E39",
"r  c #915E36",
"t  c #925F39",
"y  c #8F6037",
"u  c #87603D",
"i  c #8D623B",
"p  c #906036",
"a  c #94633B",
"s  c #9A653B",
"d  c #96683E",
"f  c #9C6A3E",
"g  c #9D713F",
"h  c #A1673C",
"j  c #A26C3E",
"k  c #A2713E",
"l  c #8B6540",
"z  c #9C6740",
"x  c #966A41",
"c  c #9D6D41",
"v  c #967145",
"b  c #9D7243",
"n  c #9E7846",
"m  c #9E7449",
"M  c #A26E42",
"N  c #A47344",
"B  c #AA7545",
"V  c #A57946",
"C  c #AC7A46",
"Z  c #A47649",
"A  c #AA7648",
"S  c #A57B4B",
"D  c #AC7C4B",
"F  c #B07D47",
"G  c #B17E4C",
"H  c #A57D51",
"J  c #AD7E51",
"K  c #B27F51",
"L  c #A6824D",
"P  c #AC814E",
"I  c #B3824E",
"U  c #B8834F",
"Y  c #A78053",
"T  c #AD8351",
"R  c #AE8954",
"E  c #AF875B",
"W  c #B48452",
"Q  c #B98654",
"!  c #B68A55",
"~  c #BA8A55",
"^  c #B38658",
"/  c #B88758",
"(  c #B68C59",
")  c #BB8F5D",
"_  c #B98F5C",
"`  c #BC8F5C",
"'  c #BE8F5C",
"]  c #BB8D5A",
"[  c #B69057",
"{  c #B89056",
"}  c #BC9057",
"|  c #BC9157",
" . c #B7915B",
".. c #B99058",
"X. c #BA905B",
"o. c #BE9159",
"O. c #BC915A",
"+. c #BE905B",
"@. c #BF905B",
"#. c #BF935B",
"$. c #BB915D",
"%. c #BB915F",
"&. c #BB925E",
"*. c #BC915D",
"=. c #BD925D",
"-. c #BF935D",
";. c #BC935F",
":. c #BD925E",
">. c #BE925E",
",. c #BF925F",
"<. c #BF945D",
"1. c #BF945F",
"2. c #BE955F",
"3. c #BD915C",
"4. c #BD9360",
"5. c #BE9360",
"6. c #BD9460",
"7. c #BE9460",
"8. c #BE9461",
"9. c #BF9761",
"0. c #BF9763",
"q. c #BE9360",
"w. c #C08F5C",
"e. c #C08F5B",
"r. c #C0905B",
"t. c #C0935C",
"y. c #C0935F",
"u. c #C1945E",
"i. c #C1955F",
"p. c #C0945F",
"a. c #C1935D",
"s. c #C4985F",
"d. c #C09560",
"f. c #C39561",
"g. c #C19562",
"h. c #C19663",
"j. c #C29762",
"k. c #C19764",
"l. c #C39561",
"z. c #C89663",
"x. c #C19963",
"c. c #C19863",
"v. c #C39963",
"b. c #C69A63",
"n. c #C39B65",
"m. c #C59964",
"M. c #C79C65",
"N. c #C49C66",
"B. c #C59A64",
"V. c #C89B63",
"C. c #C99C64",
"Z. c #C69E6A",
"A. c #C69C68",
"S. c #CA9F68",
"D. c #CB9F68",
"F. c #C99D6A",
"G. c #CBA067",
"H. c #C7A06B",
"J. c #CAA06A",
"K. c #CEA36B",
"L. c #C8A06C",
"P. c #C9A16D",
"I. c #CDA36C",
"U. c #CCA36D",
"Y. c #CDA26A",
"T. c #CEA472",
"R. c #D2A974",
/* pixels */
"x.~ q i b.x.R ) W _ x.7.W s & Q :.k.' l.l.Q 2.Q I o.J.N 4 W ) ! ! ! ) m.%.) %.%.u.8 f o.F ~ :.#.u.] o.o.] ] ~ 8 D 2.k.:.' P.:.] ",
"X.U 1 w J.7.L ! T ^ R  .W e # W g.] ] t.m.! 2.I F ' U.d * I :.! W ! ) 0.7.' [ ( t.1 d ] D ] :.~ 2.~ ' o.! ' ] % N o.' ] :.F.%.] ",
"' G 6 8 S.7.S R T ^ T T ! r + I ' D Q 2.t.U X.I G Q U.d $ I %.W W ! 4.0.4./ ! ) t.= s ~ C ! o.~ :.Q ] ~ U Q ] $ c ] ] ( g.S.X.! ",
"/ G , 0 M.:.L R D ! D S ^ q + D ~ B P %.' U X.I A Q U.a + D 6.W W / 8.6.4.! R ) ~ = f e.D Q ] ! ~ Q ! } A Q w.% f ] ( Q k.A.( W ",
"Q G = 0 V.%.L R P ^ S n Q 9 $ D W M W X.t.I { I A Q J.r + G 6.P W ! g.( 4.W J ) ~ * f ] C I { U ~ Q ! ~ B G w.% h ~ ( ~ k.M.! D ",
"W G - 0 C.^ v T D Q S m W q % D W M P ! | I [ P F U D.9 X A 6.D W ' ' ! 4.W D 6.U $ f ] C I { I ! Q U ! B D ' % N ~ ] ' m.m.! D ",
"W F * w s.) v S P ^ V b W q * D I j P ! r.I [ C F W C.5 X F 4.K W %.] / %.W J ) U @ d t.C F I I ~ U I ~ N G w.% N :./ :.Z.z.W G ",
"W A @ e s.] ^ x D ! m d W 9 $ D U h L { r.I [ C B K e.= X G :.D W 8.( ! :.K D ) G $ f u.F F I I ~ ~ I ! k U ] @ B :.' ' F.A.K D ",
"~ B % i m.K D E m ! b d W q % D K M D ( :.I ! C F G B 8 + I 6.D W g.( ! 4.G T ) K : s z.C F I ~ ] Q F Q M W / @ A 4.' W m A.W G ",
"~ B % x V.W N D D ! b d W 9 % K K M D ( t.G ! C F k D i # Q %.J ^ 4.! W ) G T / D * a t.C F F ~ ! Q I Q M / K @ A ] w.H w P.G K ",
"w.B : x J.W B N S ! N z ! 9 $ D W M L [ t.I ! N F h u.e $ U %.D ! ' ! W %.W ! Z s - a s.F C k ~ ] Q W ~ j Q Z : A ] ] T l U.G J ",
"w.G : x J.G M N A ! N z W r $ G ! M L [ o.F ! N F B R.0 * ~ ) D ! / / W 4.! A M z.% a t.U k I ~ ~ Q Q ~ j Q N * D ] Q ^ l S.G P ",
":.B > m K.K M N A ^ Z z Q q @ D W M T ( r.F ~ N B w.R.8 - ' ( W / ( ~ P l.D h T.~ * e | D D C ~ X.Q W ~ B U c $ D ( G 4.E m.D W ",
":.B > m D.K s M A W B M / r @ D W N T ! | I [ B B F.I.9 - ] ( I ( / ^ D ' f F.%.F , q ~ F F C Q X.I ! ~ N W M % D ' D b.T.:.D Y ",
":.Z , Z I.A z N A Q Z z ! e @ D W M T ! | F ! N G r.z.0 > ~ ( T Q W W A B ] 7.D W 8 9 U D D F ~ o.K Q ~ B ! z # G ] A :.n.:.P P ",
"t.Z > H I.D t N B Q M z W r @ K Q N T ! ] C Q B F Q z.e , ~ ( D ~ Q W Z Q ] T P Q q 4 U F G I Q o.G ~ Q A I a # K ] B o.b.~ P P ",
":.N < H J.C a N A / N z ! a @ T K B R ! ~ C ! C B F C.e 1 ~ ! W Q W G A Q Q W J Q y 1 U Q F I ~ :.I ~ Q A I a + P ' A / V./ D Y ",
"X.N > Y m.A t N A Q M z ( a @ ! K A R ! ! C ! C k C C.e 1 ~ _ G Q I K A ( / K T U y 1 U W F U U t.I ~ Q A I a # s ~ B W m./ P P ",
"X.b > Y l.A t N D ( M f ( s $ W K B Y ( ~ B ~ P j F C.e 1 ~ :.T Q G K A ~ 4.K W ! p 1 ~ ! P ] I t.P e.Q C U a > j h D G l.! L P ",
"X.g > S t.A s M W ' x f ] s % ! ^ A D ! ~ C ~ D B F C.a 6 ~ :.I ( G D A W g.K T ~ e 1 ! U I t.F t.U e.I C Q a % s.h C D g.G L I ",
"%.c % Z ] A z c ^ ] a d ' a % W ! D A Q ~ N ~ I N P s.a 1 Q %.W ) G D A ! g.K W Q 7 1 ~ ! I b.F o.! e.G D ~ a * S.B.M J g.D D G ",
"X.b % m Q A z b ^ ( a d t.d % / W D A ! ~ B ! I C D C.f 6 U :.G ) G D A / k.G K ] r 1 ~ ~ C b.I | ~ ' F A ~ e , ' R.Q A 4.G W D ",
"[ b % H / Z s c R ( z c ] 9 % / K A D Q ~ N X.! V D C.d 6 I 4.W ] G A A / B.W D ' r 4 t.' C s.U ] ~ ~ D A Q q 1 Q ( m.B ' W K D ",
"! b & J K B z N T / z N z 9 : / Q B D Q ~ N ~ ! C C V.b 6 W 4.K ] G D A W k.W W o.p 8 a.o.C C.Q Q ] U C B W q 5 ~ G W A ( ] A B ",
"[ b % T ! M M Z R ] d q H Z @ %./ A D / ] j ] ~ C C u.M 6 U ) T ] K J A Q B.W J ' e 8 u.~ C t.t.I o.U C N Q q 1 Q T W A ] w.B B ",
"! c % R ! M M S Y ] s s V.x % g.( G G / ~ h ! ' L V z.x 6 W ] I / D D A ! m.W D ' q 0 z.~ B ~ u.G u.! B B ~ q > W J Q A ! t.B A ",
"] c @ Y / c M N S ^ s D g.x @ m.] G K / ~ h Q ' C B s.a 0 ~ ( I ] G K B ! B.J D w.9 0 f.~ B U o.F t.~ k C ~ 0 - W P Q G W g.B K ",
"! c # T ! z N S n W N Z %.x # x.Q W K / ' h ( e.C Z t.a 0 Q ) J ] D K A / m.K T w.8 0 z.! B I :.F ] ~ B C ~ 0 - W I W G W f.B Q ",
"X.N # Y ^ x Z D n ( M b :.r + n.] K K / ' h ( o.P k u.d 8 ~ ] W ' G J A / l.J W ' , y m.! B I t.U ] ~ B C ] q > W R W Q K w.A Q ",
"o.f # Y ! d N S S ' N b ' r + m.( G G / :.h ) o.I V b.d 6 ~ ) G 4.D G A / k.G ! Q , i V.! B C | U ' } C C ] q $ W R D Q G ( A ' ",
"o.j # H ! s N A S :.A c ) q + k.Q K G ! } N ~ ' I C s.d 8 ~ ] W 4.D G D ! g.W ( W , r f.! B D ~ U ) X.C C ' y # G ^ A ~ K W G g.",
":.j # H K a x Z S ' N c ) 9 O x.Q G D K ] A Q ~ U k s.d 0 ~ ] W ' G D D K k.G ' W 4 r s.! B I ! I o.} C Z o.y O A ( N Q W G W g.",
"4.M # H K a d b J W Z c ] 9 . b.! G D D w.W Q Q ~ S b.z 8 Q ) K %.G D F W m.K ' G 4 a b.! B I ! F :.t.C k r.p # C ! N P I I ( w.",
"4.x # m K a d N D K M b ( 9 O z.W F Y J g.] U ~ ~ C u.z q U ) W %.W A D / A.K g.F > e z.~ D D ~ C o.t.F C r.a # N I N D P G ] / ",
":.M # Z J t d b S K M M ! 6 . t.Q A D D w.] W ] ~ V u.b 8 U %.! ( ! B A %.B.K S.D , r a.! G B ~ F t.t.I B r.d + j F N A K K w./ ",
":.A % Z M a a N S J B S P 9 . Q W B D D ( ' Q t.~ C u.N 6 D 4.W ( ! A A g.m.K B.G 4 r a.Q K M ~ G o.t.I B e.c + B D N C L W f.Q ",
"o.A % Z M d d M Z J B A P 6   Q W A D P ! ' Q t.] V o.N 8 G 4.! ^ 4.G A k.g.K m.Q , y f.Q U j ! I :.t.U C ~ N X N G k N L ! f.W ",
"' N % m j j d x n S A H Y 9 o Q W D A R ! l.x y t.N o.b 3 F 4.W R k.W A B.%.K k.' - 0 K I ~ C ! U :.2.U D X.Z $ M G j N P ! f.Q ",
"' M % x j j d b m Z B A T 9 + Q ! C D W ^ z.0 % ~ N ' M , B ) W P ;.Q D B.4.W x.t.% a j D I U U G ' :.Q G t.A + M G j N Y W g.K ",
"( M % x N M d f m Z Z A D 9 X Q I D A R ! S.x e l.b o.c - N ' W R [ ( J Z.' / k.x.- b U k C C U I ' ~ ~ P o.Q $ f W j N L ! w.G ",
"~ M % l B M z c n N N A P 8 . W I D V ! ! b.g.) t.N ! M $ N ) W T R ] ! m.:.! 4.V.3 y m.k A F U I | ~ ~ D ( Q * M Q j N P Q :.I ",
"! M # a B M d c N S m Z P 6 X W I V D P ! :.M.A.Q b ] N @ N ] K T T ! ] x.o.J ) m.> q z.e.j F I C t.~ ~ D ! W * f ~ j N L Q ( W ",
"W M % l A M c M N L m Z W 6 + W I N D ! ! ' l.m.! b ] Z # B ~ T G L ^ :.g.] T ) b.> w ' s.B k I C t.~ ] C ! W X z ] j k D K W W ",
"G M : i F f c c N L N N T 6 + K Q N S P ) ~ x.m.W N X.Z $ j ! D D L ! ] :.( D ] V., q t.Q k F I B e.~ ] A I F X c ~ j b P K W W ",
"D B , i G t s M N P V N G 6 . W Q N D L l.W ' g.] N :.J @ s ! T J L ^ ~ :.( A ) z.1 6 ' ! k C I C e.~ e.B I Z + s ~ M b D I W W ",
"G B 3 l Q a a M j W N b W 6 . ! ] Z L S :.! ! l.o.f u.D @ s D W D D ^ Q ] Q Z ) z.6 , ] ~ B C F k e.Q ] B I B + f ~ N n L U W W ",
"W A 4 w y.a a z j I b b W 8 X I e.B D D ' / K ' ~ N z.D @ M Q A J S R ( ] P B / l.6 - ] | B C F k e.Q r.B W B # f Q M m P K W Q ",
"Q A 8 w w.t r M f I c f G 9 X A r.B T W P ( G ! ! Z x.N $ f z.W A D R ! ) W A ! t.9 & ' o.D C F U e.~ | N I N + s ~ N N G G K W ",
"! B 5 w y.t t M M K k d R r X D t.B W ( B ~ W U W N x.N + f | s.W D L ! :.D V ] e.6 & Q :.F C F U t.~ ~ N G N @ s Q M Z D G W W ",
"( B 8 4 w.s s M h W Z d W a @ Z u.B W ( f W ! G I N t.c + s ~ ! ( D P ! :.P D ! ~ 6 & U ] D F C I | { U N D B X r Q M A I G W ] ",
"l.M 3 4 w.z z Z h Q B c ^ M @ A z.N I ~ f L ~ K G b l.N # s X.W G A D ! ~ P V ! U , > U ] D C C I { U ~ B B M $ q ! N B G F W w.",
"u.M 3 > w.Z z B h W B c ^ Z @ N s.Z A ' M Z W G C M k.N # s X.Q W A L ! ~ P D ^ I , > F ] U j a I ! I U N B M - q U S B A N G a.",
":.h , > Q A M B s Q C d ^ A + x m.B D ' j V P G A c :.M @ d 2.I W Z D ! ~ C D W F , > G ] U d 0 I U Q ! N C M , q W P N A M F w.",
"7.h 4 2 A x M A j Q S b %.P + a m.B A t.N N Y D D c ( N $ c #.I W Z D ! ! V S W I = 1 G ] I p s ! ! I ! C D M , 6 Q W M B M G w.",
":.h , # Z.H s A j Q Z n %.Q X q z.A A o.j n P A B c ' N @ M u.I W V L I ! C S W Q , 1 F o.Q f j o.~ C I C W B = 6 W W f N h K w.",
":.f , # Q J A A j Q S n X.~ o 6 s.D A ] j b T A B c ] Z O d 2.I ! V D R ! V D W Q = , G ~ ~ k j 2.! I W C ! G = 5 W W M h h G w.",
":.j 4 O 4.N N W D Q D n X.~ o 4 a.G B ' M N T A C c ] m . s <.W ! V L I ( V P ^ I , 1 G ~ ! A N t.U I I D Q G ; , W K N M s F g.",
":.z < # g.N c C U Q D n ..~ O > e.G M Q N N P B V z ] N # d <.U ~ V D P ! S P ! U 1 4 F ~ ! F D o.! D I A ( G ; , U W B M h G ' ",
"2.j > & g.M N Z ~ Q D n X.' + % w.F M G B N P A B c ( Z + s | U ~ S S R ~ V L ! Q , 1 U X.! U ~ ~ ! I P C ~ W 5 5 W Q N x h D %.",
":.M 1 & z.c d N ! Q D n X.t.+ # Q U B W D S L D N c ! V $ d } W ~ D S W ] P S ( Q 6 > U o.I Q ' U ~ I D B ! U 5 8 K W B z M D ' ",
"2.M , > z.c c c ! ~ P n [ ] X $ Q I B W A S D F B M W Z % f } U U P S R ( D L %.~ 6 > U X.I U ' ! | I P D W G 6 6 I Q B c N D ] ",
"x.M 4 > m.N f N ( ~ D V ( ' $ + Q U A I A D D A N N ! Z > k o.U ! D S R X.L L ( ~ 8 > I } Q C Q [ <.! I D W F 9 6 Q Q Z b N D ! ",
"b.N 8 < m.A c N ! #.P S ! ' > O Q Q D I G D G A B B W Z > Z } I ~ P P ( ) R P ( } 0 1 I X.! B I ( s.~ I D P F p e U ! B b N D W ",
"n.Z 4 4 t.T N Z ] X.! P ! Q , + Q ' G Q Q K A A B W ! J 0 P 2.I { W P ^ %.W R  .#.y 4 U ~ ! A L [ s.} ! D I B s y U ] A m Z G W "
};
