/* XPM */
static char *_bb909d347024b01ad55314fbabf00e3[] = {
/* columns rows colors chars-per-pixel */
"64 64 78 1 ",
"  c black",
". c #2F2F2F",
"X c gray25",
"o c #484848",
"O c gray22",
"+ c #535353",
"@ c gray19",
"# c gray33",
"$ c gray36",
"% c gray3",
"& c #101010",
"* c #202020",
"= c #282828",
"- c gray11",
"; c #181818",
": c gray9",
"> c #373737",
", c #4C4C4C",
"< c DimGray",
"1 c #585858",
"2 c #505050",
"3 c #111111",
"4 c #2A2A2A",
"5 c #464646",
"6 c #606060",
"7 c gray29",
"8 c #3F3F3F",
"9 c gray23",
"0 c #1B1B1B",
"q c #2C1414",
"w c #381C18",
"e c #1C1C24",
"r c #56322A",
"t c #452723",
"y c gray27",
"u c #171719",
"i c gray28",
"p c #300000",
"a c #392607",
"s c #480000",
"d c #442D04",
"f c #393939",
"g c #3C3C3C",
"h c #5D5D5D",
"j c #3A3A3A",
"k c gray17",
"l c gray8",
"z c gray20",
"x c #232323",
"c c gray30",
"v c #2E160A",
"b c #613E2F",
"n c #444444",
"m c #373739",
"M c gray12",
"N c #080810",
"B c gray15",
"V c gray18",
"C c #1E1E1E",
"Z c gray13",
"A c #22362E",
"S c #686868",
"D c #222222",
"F c #656565",
"G c #5F5F5F",
"H c gray31",
"J c #6D6D6D",
"K c gray5",
"L c #272727",
"P c #5B5B5B",
"I c gray47",
"U c gray43",
"Y c #323232",
"T c #7C7C7C",
"R c #727272",
"E c #7E7E7E",
"W c gray54",
"Q c white",
/* pixels */
"                                                                ",
"..XoOooXooXX.oXoooo.+X@@+XOOooO@..XoOooXooXX.oXoooo.+X@@+XOOooO@",
"#$$$$$#$$$$$$#$$$$$$$#$$$$#$$$###$$$$$#$$$$$$#$$$$$$$#$$$$#$$$##",
"%%&*@ =-&&%&&&@= @*&&%&&&@*;@&%%%%&*@ =-&&%&&&@= @*&&%&&&@*;@&%%",
"@@%@X o@%:=>*%OO X@%:=>*%@@=@%=:@@%@X o@%:=>*%OO X@%:=>*%@@=@%=:",
"%,:@< 1@&*%=%%@O <@&*%=%%OO@O&%>%,:@< 1@&*%=%%@O <@&*%=%%OO@O&%>",
",%-@2 <@%3X%X%XO 2@%3X%X%@O@@%O%,%-@2 <@%3X%X%XO 2@%3X%X%@O@@%O%",
"%=%4o 5@&O&:O%@O o4&O&:O%XO@X&O:%=%4o 5@&O&:O%@O o4&O&:O%XO@X&O:",
":*%=O O=%*:&&:O= O=%*:&&:OO=O%:&:*%=O O=%*:&&:O= O=%*:&&:OO=O%:&",
"%;&     %%%:&:     %%%:&:    %&%%;&     %%%:&:     %%%:&:    %&%",
"2212111111222222222222222222166222121111112222222222222222221662",
"########7#7#8##$5#7########$#587########7#7#8##$5#7########$#587",
"%%%   %&**;%%&&%%%&%%&%%%% % %&;;;%%& % &&&%%%%%%&%%%%;**;% %   ",
"%%%%%%%&99*&&&*; &*===% %&%%&%&4X0%%&%%%&&%;=**;& ;&&%;95=&%%%%%",
";;%*q&%*55;&*;*&&=Oo26@&%&;&;&&.2.%%;;&&&&*o1oX@;%;&qq*55;q;&**;",
"=*@=*%;*59&w@*=;*Oo261X; %;**q*95@&;e=**%&@261o@=&;q&&*95*q=*=wr",
"=*t==*w@9.*@@=*;=52@y5.;%*=*=*w99Xw;====u;=9+Xi5O&;*t%*9.*q===@=",
"@=@==Oq@5+*O@=*;;pp;asp;u==*tO=i5oq=@===*&;pp*dp%u;w@q*Of=*====@",
"t==@=t=@25*@t==%X&&XX;*=&@t==@=gh8=@===t=%2%*%*%;&;=@t*hi*t==@@O",
"==w=@@w==@q@O**%i=; &O8.e@=*@@w=*@w==t=@=*8#=@@=j8%@w@==@0=t==@@",
"=@w@O=@rOO=@@*=%-&O@@g *=@=t=@@t@=@w@===@*-=7@og&%;==@rOO=@==@w=",
"tt=OO@==r@=tw@*;&%g7#k%==t=@=@@=t@Or@t==@=;l$<5l&&*@=t=@@O=t=Ot@",
"==w@r@@t@@=w==@=0*5&0z;=wO*==@===@@@t=t=t@@=k;x=%=O@=w=@@@w=t@@r",
"=@t@t@=@@@@tw=@X;%iccg=@w@w*==@;;@@=====@=t&ic7&%OO@w@@O@=w==@t@",
"=*@@t==@==w=@=r@*&&&%=w=t@t=t@**%*======@=w==&&0%=O@==@@=@t==@t=",
"t==@w@=@=w@w@=rO=&;;;=@twtwtt@q&@%;*@=ttt@t@;%;%;=Ot=O=@@tt=t@w@",
"tt@Owtw@@=@==@@O==*==r@===*t==&%X%;*tt=@@t=r=X=@@=X@@O==@@@t=Owt",
"tw==w@@r=tt=O@r=@O=@@@rtwt*=t*%*1=&;@*@tOw=@=@r@@@O@=@@@@t@*@t*=",
"tttO=t@Owt@=rttOr@@O=@O=t*==t%%91w%%q*=wwt=@*tO=t==@=t@Owrw*=*==",
"=@t@=wt@wq;;=ttXO=t===O@=tw@&%*52.q%;ww@=wt=**@=wt=@@===w=tw@t=w",
"w@=t=w==q&%%&*====@==rt==@wq&%@X2*v%&*w*wwtwwtt=w@=qw*;&wtOw*www",
"ww@=wO@==q%*%%&wt=O==@@=X*qq%*@o2@w%%;;tw*@*=t=wO**;;*&;=r*;t=w=",
"=tt@w@=@=&%o=;%%%t@@@=O=@==q%@OohOqq%&;wwtt==w@w=*%%@X&*@=@@tt*t",
"OwwwO==r@%%=2O*%%&*wOw==r*&%&@Og$O;*%%&&*twt@qwq*%*X2=&w@w==rww*",
"*@==@@@w=&%qObt@;%;%*=**;%%%&;=g+.*&&%%%&;;w=**&;X.+@q&=O==@w@ew",
"=t*w@==@wq%&vXOtO;%%%%%%%%;0**;*&;;;;*%%%%&;q&%*@tXovq%===@@ww=q",
"=@==O@r@wq%;*8XOOO*&%%&;@@@@O*@@**@OOOO@e%q&%%@OOOn@*;%=w====w*=",
"wt==Or===*&&w.$oO@=%%===@.;&   %    %x.=@=@*u&OOX+5=w%;*w==@O@t@",
"w=w@@=@=w*%%q&##@=;4=9*&  %%%%&&&%%%%%  x.m==*u@o+.&q%&w@===O=t=",
"@*@@@==t@*&%*&..%*.0&& %%&;**@@@=@@=*=&%%  kx.=&&.=*;%;t@=Ow=@==",
"w==ww@==rw%%;;M:=0;N %%&*=x.xx..k..xx==*;%%  .*0*%l;&%%*rw@=r@@@",
"=t=wOrt@@t;%%&=0x&% %;==..x&%%%%%% %Nxkxx=*%% %.==*%&&&*O@=t@===",
"=tO*=t@==*&&*=0x% &%**x.:%%%   &*%   %%%x.x=;%% kj=@*N&*tO==@@==",
"@ttt=@==@;%*@xx  %;*0B%%&%*%   =9;   &&%%%x.x=:% &9.O%&&@O@O@ttt",
"@tr@====&%&;=x %&;*B&%   x.%   @5*   *=&  %%x0x&% %9x=%&*O@O@tt@",
"@t@=t=w*%%=xV &&*0.%&   %9O%   @5*   =O*   &%0Vx;&  .O=%&@@=@t@=",
"r=====*&;*x. %&*CZ%%;%  &.X%   @5*   9X*   xx&&Vx*%% 9@*&*@O=*=@",
"w====@;%*=9 %&*xx% ;@;  %@X&   @2;   9o;  %99&&%VxA% ;f@;&=O==r=",
"w=w=t*%&=xN ;*xx%  *O;  %@X&   @o&   .o*  %.X& &N.x=% ..=&&@=@==",
"==*w=%%=Ok &=C0%   =O*   =o%   @2;   92*  %@o%  &&Bx%%%z@;%=@O==",
"=@*=;%&Oz %**C%%   *O*   @o%   @2;   O1=  %Oo%   &&Bx% *.=;;=O==",
"=t==&&=.* N=x%&&   =o*   Oo&   =2;   O1=  %@1%   ;%;0*% .X;%*@==",
"===*&&Ok&%=0&&=;   @o=  %Oo&   =1*   @2;   @o&   **%z=%%;O=%&;=@",
"==@%&=xx &@Z%*@*   @2=  %XX%   =1*   =2;   Oo&   *@&M=-& .O;%;u=",
";w;&&=9%%:.=&-O*   @1=  &oX&   O6*   =1;   @o%   =O*%z@&%;@=&&&w",
"&&&;;@B %=z&&=O;   .+=  %o2&   OS=   @1;  %@X%   @X@&Z.&%%.*&;;%",
"&%&%=jZ %jD%%x9;   9+=  &22%   .Sz   jF=  %5G&   @X@ lgx& k.&%%&",
"%%&%=.&%*j=% x9-   .H.  &Gn%   .Jz   5G=  %+h&   xO* ;g.K :j&%&*",
"*%%;zB%%=g%  B9L   9+9  %+P%   >SL   z<x  %FF&   ziL &=i&%;jx%&;",
";&%zzZ%%=z&  9+.   9G9  %+G%   iI.   9Uk  %GG;   Y2. &:i;%&.9&%*",
"*%%j5&%;gz%  5+.   9G5  %GS&   iI9   5T.  %FG;   9h9  Mi=%%>i;%%",
"u%%i#=0=iz%  8h8   5J+  &FJ;   5I7   5R>  %Fh;   gS5  Miz%l97&%%",
"*&%ihG#h#z   8hg   7G7  &FF&   7I7   #R8  %$<&   gU7  %g#7#G#%%%",
"=%;8RETJGz===8Rz===gG8===$F====iI2===#U7===$<====zR#===g2RWWc;&;"
};